<svg width="404" height="108" viewBox="0 0 404 108" fill="none" xmlns="http://www.w3.org/2000/svg">
<g filter="url(#filter0_d)">
<rect x="20" y="10" width="364" height="68" rx="16" fill="white"/>
</g>
<path d="M61.38 44.338C61.38 45.0193 61.2587 45.6493 61.016 46.228C60.7827 46.7973 60.4513 47.2873 60.022 47.698C59.5927 48.1087 59.0747 48.4307 58.468 48.664C57.8707 48.888 57.208 49 56.48 49H54.002C53.722 49 53.484 48.902 53.288 48.706C53.092 48.51 52.994 48.272 52.994 47.992V40.67C52.994 40.39 53.092 40.152 53.288 39.956C53.484 39.76 53.722 39.662 54.002 39.662H56.48C57.208 39.662 57.8707 39.7787 58.468 40.012C59.0747 40.236 59.5927 40.5533 60.022 40.964C60.4513 41.3747 60.7827 41.8693 61.016 42.448C61.2587 43.0267 61.38 43.6567 61.38 44.338ZM59.658 44.338C59.658 43.89 59.588 43.47 59.448 43.078C59.3173 42.686 59.1167 42.35 58.846 42.07C58.5847 41.7807 58.2533 41.552 57.852 41.384C57.4507 41.216 56.9933 41.132 56.48 41.132H54.66V47.53H56.48C56.984 47.53 57.432 47.446 57.824 47.278C58.216 47.11 58.5473 46.8813 58.818 46.592C59.098 46.3027 59.308 45.9667 59.448 45.584C59.588 45.192 59.658 44.7767 59.658 44.338ZM69.2331 45.374C69.2331 45.57 69.1631 45.7427 69.0231 45.892C68.8831 46.032 68.7105 46.102 68.5051 46.102H64.0531C64.0811 46.354 64.1465 46.5967 64.2491 46.83C64.3611 47.054 64.5058 47.25 64.6831 47.418C64.8605 47.586 65.0751 47.7213 65.3271 47.824C65.5791 47.9173 65.8638 47.964 66.1811 47.964C66.4238 47.964 66.6758 47.9267 66.9371 47.852C67.2078 47.7773 67.4598 47.6653 67.6931 47.516C67.7958 47.46 67.8985 47.432 68.0011 47.432C68.1505 47.432 68.2905 47.488 68.4211 47.6C68.5611 47.712 68.6311 47.8613 68.6311 48.048C68.6311 48.244 68.5471 48.3933 68.3791 48.496C68.0431 48.7293 67.6745 48.8973 67.2731 49C66.8811 49.112 66.4658 49.168 66.0271 49.168C65.5231 49.168 65.0518 49.084 64.6131 48.916C64.1745 48.748 63.7965 48.51 63.4791 48.202C63.1711 47.8847 62.9285 47.5113 62.7511 47.082C62.5738 46.6433 62.4851 46.1533 62.4851 45.612C62.4851 45.1267 62.5691 44.6693 62.7371 44.24C62.9051 43.8013 63.1385 43.4233 63.4371 43.106C63.7451 42.7887 64.1091 42.5367 64.5291 42.35C64.9491 42.1633 65.4111 42.07 65.9151 42.07C66.3165 42.07 66.6851 42.1307 67.0211 42.252C67.3571 42.364 67.6558 42.5273 67.9171 42.742C68.1878 42.9473 68.4211 43.1993 68.6171 43.498C68.8131 43.7873 68.9625 44.114 69.0651 44.478C69.1025 44.618 69.1398 44.7673 69.1771 44.926C69.2145 45.0753 69.2331 45.2247 69.2331 45.374ZM67.7911 45.066C67.7911 44.87 67.7538 44.6693 67.6791 44.464C67.6045 44.2493 67.4878 44.0533 67.3291 43.876C67.1798 43.6987 66.9885 43.554 66.7551 43.442C66.5218 43.33 66.2418 43.274 65.9151 43.274C65.5978 43.274 65.3271 43.33 65.1031 43.442C64.8791 43.554 64.6878 43.6987 64.5291 43.876C64.3798 44.044 64.2631 44.2353 64.1791 44.45C64.0951 44.6553 64.0485 44.8607 64.0391 45.066H67.7911ZM75.8361 47.04C75.8361 47.3387 75.7754 47.6187 75.6541 47.88C75.5328 48.1413 75.3508 48.3653 75.1081 48.552C74.8748 48.7387 74.5808 48.888 74.2261 49C73.8714 49.112 73.4701 49.168 73.0221 49.168C72.7888 49.168 72.5461 49.1493 72.2941 49.112C72.0421 49.0747 71.7948 49.0233 71.5521 48.958C71.3094 48.8833 71.0854 48.79 70.8801 48.678C70.6748 48.566 70.5068 48.4353 70.3761 48.286C70.2828 48.1833 70.2361 48.062 70.2361 47.922C70.2361 47.7447 70.3014 47.5953 70.4321 47.474C70.5628 47.3527 70.7121 47.292 70.8801 47.292C71.0108 47.292 71.1228 47.3247 71.2161 47.39C71.4774 47.5673 71.7714 47.712 72.0981 47.824C72.4248 47.936 72.7514 47.992 73.0781 47.992C73.5261 47.992 73.8574 47.908 74.0721 47.74C74.2868 47.572 74.3941 47.3573 74.3941 47.096C74.3941 46.8813 74.2914 46.718 74.0861 46.606C73.8901 46.494 73.6381 46.4007 73.3301 46.326C73.0314 46.2513 72.7048 46.1767 72.3501 46.102C71.9954 46.0273 71.6688 45.9153 71.3701 45.766C71.0714 45.6167 70.8194 45.416 70.6141 45.164C70.4088 44.912 70.3061 44.5667 70.3061 44.128C70.3061 43.8573 70.3668 43.596 70.4881 43.344C70.6094 43.092 70.7821 42.8727 71.0061 42.686C71.2394 42.4993 71.5194 42.35 71.8461 42.238C72.1728 42.126 72.5554 42.07 72.9941 42.07C73.2181 42.07 73.4468 42.0887 73.6801 42.126C73.9228 42.154 74.1514 42.2053 74.3661 42.28C74.5808 42.3453 74.7768 42.4293 74.9541 42.532C75.1314 42.6347 75.2761 42.7513 75.3881 42.882C75.4721 42.9753 75.5141 43.0873 75.5141 43.218C75.5141 43.3767 75.4534 43.512 75.3321 43.624C75.2108 43.736 75.0708 43.792 74.9121 43.792C74.7908 43.792 74.6881 43.764 74.6041 43.708C74.3894 43.5587 74.1421 43.442 73.8621 43.358C73.5821 43.274 73.2928 43.232 72.9941 43.232C72.6114 43.232 72.3081 43.3113 72.0841 43.47C71.8694 43.6287 71.7621 43.8247 71.7621 44.058C71.7621 44.254 71.8601 44.4033 72.0561 44.506C72.2614 44.6087 72.5134 44.6973 72.8121 44.772C73.1201 44.8373 73.4468 44.912 73.7921 44.996C74.1468 45.0707 74.4734 45.1873 74.7721 45.346C75.0801 45.4953 75.3321 45.7053 75.5281 45.976C75.7334 46.2373 75.8361 46.592 75.8361 47.04ZM78.0436 39.578C78.2956 39.578 78.5103 39.6667 78.6876 39.844C78.8743 40.0213 78.9676 40.236 78.9676 40.488C78.9676 40.7493 78.8743 40.9687 78.6876 41.146C78.5103 41.3233 78.2956 41.412 78.0436 41.412C77.7916 41.412 77.5723 41.3233 77.3856 41.146C77.2083 40.9687 77.1196 40.7493 77.1196 40.488C77.1196 40.236 77.2083 40.0213 77.3856 39.844C77.5723 39.6667 77.7916 39.578 78.0436 39.578ZM78.7996 48.342C78.7996 48.5473 78.7249 48.7247 78.5756 48.874C78.4263 49.014 78.2489 49.084 78.0436 49.084C77.8383 49.084 77.6609 49.014 77.5116 48.874C77.3716 48.7247 77.3016 48.5473 77.3016 48.342V42.882C77.3016 42.686 77.3716 42.518 77.5116 42.378C77.6609 42.2287 77.8476 42.154 78.0716 42.154C78.2676 42.154 78.4356 42.2287 78.5756 42.378C78.7249 42.518 78.7996 42.686 78.7996 42.882V48.342ZM86.9222 48.636C86.9222 49.252 86.8196 49.7607 86.6142 50.162C86.4089 50.5633 86.1382 50.8807 85.8022 51.114C85.4662 51.3473 85.0929 51.5107 84.6822 51.604C84.2716 51.6973 83.8562 51.744 83.4362 51.744C83.2122 51.744 82.9742 51.73 82.7222 51.702C82.4796 51.674 82.2416 51.6273 82.0082 51.562C81.7749 51.4967 81.5556 51.4127 81.3502 51.31C81.1542 51.2073 80.9862 51.0767 80.8462 50.918C80.7622 50.806 80.7202 50.68 80.7202 50.54C80.7202 50.3627 80.7809 50.2133 80.9022 50.092C81.0329 49.9707 81.1869 49.91 81.3642 49.91C81.4856 49.91 81.5976 49.9427 81.7002 50.008C81.9522 50.1947 82.2182 50.3253 82.4982 50.4C82.7876 50.4747 83.1002 50.512 83.4362 50.512C83.6789 50.512 83.9169 50.484 84.1502 50.428C84.3836 50.372 84.5936 50.2693 84.7802 50.12C84.9762 49.98 85.1302 49.7933 85.2422 49.56C85.3636 49.3267 85.4242 49.0327 85.4242 48.678V47.894C85.1629 48.23 84.8456 48.5007 84.4722 48.706C84.1082 48.902 83.7069 49 83.2682 49C82.8389 49 82.4376 48.9253 82.0642 48.776C81.7002 48.6267 81.3829 48.4073 81.1122 48.118C80.8509 47.8193 80.6456 47.4553 80.4962 47.026C80.3469 46.5967 80.2722 46.102 80.2722 45.542C80.2722 44.9913 80.3422 44.5013 80.4822 44.072C80.6316 43.6427 80.8369 43.2787 81.0982 42.98C81.3689 42.6813 81.6862 42.4573 82.0502 42.308C82.4236 42.1493 82.8296 42.07 83.2682 42.07C83.6882 42.07 84.0849 42.1633 84.4582 42.35C84.8316 42.5367 85.1536 42.8073 85.4242 43.162V42.896C85.4242 42.6907 85.4942 42.518 85.6342 42.378C85.7836 42.2287 85.9702 42.154 86.1942 42.154C86.3902 42.154 86.5582 42.2287 86.6982 42.378C86.8476 42.518 86.9222 42.6907 86.9222 42.896V48.636ZM85.4242 46.774V44.296C85.3402 44.1747 85.2329 44.0627 85.1022 43.96C84.9809 43.848 84.8456 43.75 84.6962 43.666C84.5469 43.582 84.3836 43.5167 84.2062 43.47C84.0382 43.4233 83.8702 43.4 83.7022 43.4C83.4222 43.4 83.1656 43.4513 82.9322 43.554C82.6989 43.6567 82.4982 43.8013 82.3302 43.988C82.1716 44.1747 82.0456 44.3987 81.9522 44.66C81.8589 44.9213 81.8122 45.2153 81.8122 45.542C81.8122 45.8593 81.8589 46.1487 81.9522 46.41C82.0456 46.6713 82.1716 46.9 82.3302 47.096C82.4982 47.2827 82.6989 47.4273 82.9322 47.53C83.1656 47.6327 83.4222 47.684 83.7022 47.684C83.8702 47.684 84.0382 47.6607 84.2062 47.614C84.3836 47.5673 84.5469 47.502 84.6962 47.418C84.8456 47.334 84.9809 47.2407 85.1022 47.138C85.2329 47.026 85.3402 46.9047 85.4242 46.774ZM94.889 48.342C94.889 48.5473 94.8143 48.7247 94.665 48.874C94.5157 49.014 94.3383 49.084 94.133 49.084C93.9277 49.084 93.7503 49.014 93.601 48.874C93.461 48.7247 93.391 48.5473 93.391 48.342V44.786C93.391 44.2633 93.265 43.904 93.013 43.708C92.7703 43.5027 92.4437 43.4 92.033 43.4C91.8463 43.4 91.669 43.428 91.501 43.484C91.333 43.5307 91.1743 43.596 91.025 43.68C90.8757 43.764 90.7403 43.862 90.619 43.974C90.4977 44.0767 90.3997 44.184 90.325 44.296V48.342C90.325 48.5473 90.2503 48.7247 90.101 48.874C89.9517 49.014 89.7743 49.084 89.569 49.084C89.3637 49.084 89.1863 49.014 89.037 48.874C88.897 48.7247 88.827 48.5473 88.827 48.342V42.882C88.827 42.686 88.897 42.518 89.037 42.378C89.1863 42.2287 89.373 42.154 89.597 42.154C89.793 42.154 89.961 42.2287 90.101 42.378C90.2503 42.518 90.325 42.686 90.325 42.882V43.162C90.437 43.022 90.5723 42.8913 90.731 42.77C90.8897 42.6393 91.0717 42.5227 91.277 42.42C91.4823 42.308 91.7017 42.224 91.935 42.168C92.1777 42.1027 92.4343 42.07 92.705 42.07C93.433 42.07 93.979 42.2613 94.343 42.644C94.707 43.0173 94.889 43.5493 94.889 44.24V48.342ZM103.112 45.374C103.112 45.57 103.042 45.7427 102.902 45.892C102.762 46.032 102.589 46.102 102.384 46.102H97.932C97.96 46.354 98.0254 46.5967 98.128 46.83C98.24 47.054 98.3847 47.25 98.562 47.418C98.7394 47.586 98.954 47.7213 99.206 47.824C99.458 47.9173 99.7427 47.964 100.06 47.964C100.303 47.964 100.555 47.9267 100.816 47.852C101.087 47.7773 101.339 47.6653 101.572 47.516C101.675 47.46 101.777 47.432 101.88 47.432C102.029 47.432 102.169 47.488 102.3 47.6C102.44 47.712 102.51 47.8613 102.51 48.048C102.51 48.244 102.426 48.3933 102.258 48.496C101.922 48.7293 101.553 48.8973 101.152 49C100.76 49.112 100.345 49.168 99.906 49.168C99.402 49.168 98.9307 49.084 98.492 48.916C98.0534 48.748 97.6754 48.51 97.358 48.202C97.05 47.8847 96.8074 47.5113 96.63 47.082C96.4527 46.6433 96.364 46.1533 96.364 45.612C96.364 45.1267 96.448 44.6693 96.616 44.24C96.784 43.8013 97.0174 43.4233 97.316 43.106C97.624 42.7887 97.988 42.5367 98.408 42.35C98.828 42.1633 99.29 42.07 99.794 42.07C100.195 42.07 100.564 42.1307 100.9 42.252C101.236 42.364 101.535 42.5273 101.796 42.742C102.067 42.9473 102.3 43.1993 102.496 43.498C102.692 43.7873 102.841 44.114 102.944 44.478C102.981 44.618 103.019 44.7673 103.056 44.926C103.093 45.0753 103.112 45.2247 103.112 45.374ZM101.67 45.066C101.67 44.87 101.633 44.6693 101.558 44.464C101.483 44.2493 101.367 44.0533 101.208 43.876C101.059 43.6987 100.867 43.554 100.634 43.442C100.401 43.33 100.121 43.274 99.794 43.274C99.4767 43.274 99.206 43.33 98.982 43.442C98.758 43.554 98.5667 43.6987 98.408 43.876C98.2587 44.044 98.142 44.2353 98.058 44.45C97.974 44.6553 97.9274 44.8607 97.918 45.066H101.67ZM110.821 48.342C110.821 48.5473 110.746 48.7247 110.597 48.874C110.457 49.014 110.28 49.084 110.065 49.084C109.86 49.084 109.682 49.014 109.533 48.874C109.393 48.7247 109.323 48.5473 109.323 48.342V48.076C109.052 48.4213 108.73 48.692 108.357 48.888C107.993 49.0747 107.592 49.168 107.153 49.168C106.724 49.168 106.322 49.0887 105.949 48.93C105.585 48.7713 105.268 48.5427 104.997 48.244C104.736 47.936 104.53 47.5627 104.381 47.124C104.232 46.6853 104.157 46.186 104.157 45.626C104.157 45.0753 104.227 44.5807 104.367 44.142C104.516 43.7033 104.722 43.33 104.983 43.022C105.254 42.714 105.571 42.4807 105.935 42.322C106.308 42.154 106.714 42.07 107.153 42.07C107.573 42.07 107.97 42.1633 108.343 42.35C108.726 42.5367 109.052 42.8073 109.323 43.162V40.32C109.323 40.1147 109.393 39.942 109.533 39.802C109.682 39.6527 109.869 39.578 110.093 39.578C110.289 39.578 110.457 39.6527 110.597 39.802C110.746 39.942 110.821 40.1147 110.821 40.32V48.342ZM109.323 46.956V44.296C109.155 44.044 108.908 43.834 108.581 43.666C108.264 43.4887 107.932 43.4 107.587 43.4C107.307 43.4 107.05 43.456 106.817 43.568C106.584 43.6707 106.383 43.8247 106.215 44.03C106.056 44.226 105.93 44.464 105.837 44.744C105.744 45.0147 105.697 45.3087 105.697 45.626C105.697 45.9433 105.744 46.242 105.837 46.522C105.93 46.7927 106.056 47.026 106.215 47.222C106.383 47.418 106.584 47.572 106.817 47.684C107.05 47.7867 107.307 47.838 107.587 47.838C107.932 47.838 108.264 47.754 108.581 47.586C108.908 47.418 109.155 47.208 109.323 46.956ZM121.935 48.342C121.935 48.5473 121.865 48.7247 121.725 48.874C121.585 49.014 121.408 49.084 121.193 49.084C121.044 49.084 120.913 49.056 120.801 49C120.698 48.9347 120.61 48.832 120.535 48.692C120.47 48.5427 120.437 48.4027 120.437 48.272C120.185 48.5613 119.872 48.7853 119.499 48.944C119.126 49.0933 118.715 49.168 118.267 49.168C117.987 49.168 117.707 49.1213 117.427 49.028C117.147 48.9347 116.895 48.7947 116.671 48.608C116.447 48.4213 116.26 48.188 116.111 47.908C115.971 47.628 115.901 47.3013 115.901 46.928C115.901 46.5453 115.971 46.214 116.111 45.934C116.26 45.654 116.447 45.4253 116.671 45.248C116.895 45.0707 117.147 44.94 117.427 44.856C117.707 44.772 117.987 44.73 118.267 44.73C118.715 44.73 119.126 44.8047 119.499 44.954C119.882 45.094 120.194 45.3087 120.437 45.598V44.562C120.437 44.17 120.292 43.8667 120.003 43.652C119.714 43.428 119.336 43.316 118.869 43.316C118.57 43.316 118.286 43.358 118.015 43.442C117.754 43.5167 117.502 43.6473 117.259 43.834C117.156 43.8993 117.054 43.932 116.951 43.932C116.811 43.932 116.676 43.8807 116.545 43.778C116.424 43.6753 116.363 43.5307 116.363 43.344C116.363 43.2227 116.4 43.1153 116.475 43.022C116.606 42.854 116.778 42.7093 116.993 42.588C117.208 42.4667 117.436 42.3687 117.679 42.294C117.922 42.2193 118.169 42.1633 118.421 42.126C118.673 42.0887 118.902 42.07 119.107 42.07C119.48 42.07 119.835 42.112 120.171 42.196C120.516 42.28 120.82 42.42 121.081 42.616C121.342 42.8027 121.548 43.0547 121.697 43.372C121.856 43.68 121.935 44.0627 121.935 44.52V48.342ZM120.437 47.446V46.438C120.269 46.214 120.04 46.046 119.751 45.934C119.471 45.822 119.168 45.766 118.841 45.766C118.44 45.766 118.104 45.8733 117.833 46.088C117.562 46.3027 117.427 46.592 117.427 46.956C117.427 47.32 117.562 47.6093 117.833 47.824C118.104 48.0293 118.44 48.132 118.841 48.132C119.168 48.132 119.471 48.076 119.751 47.964C120.04 47.852 120.269 47.6793 120.437 47.446ZM129.903 48.342C129.903 48.5473 129.828 48.7247 129.679 48.874C129.529 49.014 129.352 49.084 129.147 49.084C128.941 49.084 128.764 49.014 128.615 48.874C128.475 48.7247 128.405 48.5473 128.405 48.342V44.786C128.405 44.2633 128.279 43.904 128.027 43.708C127.784 43.5027 127.457 43.4 127.047 43.4C126.86 43.4 126.683 43.428 126.515 43.484C126.347 43.5307 126.188 43.596 126.039 43.68C125.889 43.764 125.754 43.862 125.633 43.974C125.511 44.0767 125.413 44.184 125.339 44.296V48.342C125.339 48.5473 125.264 48.7247 125.115 48.874C124.965 49.014 124.788 49.084 124.583 49.084C124.377 49.084 124.2 49.014 124.051 48.874C123.911 48.7247 123.841 48.5473 123.841 48.342V42.882C123.841 42.686 123.911 42.518 124.051 42.378C124.2 42.2287 124.387 42.154 124.611 42.154C124.807 42.154 124.975 42.2287 125.115 42.378C125.264 42.518 125.339 42.686 125.339 42.882V43.162C125.451 43.022 125.586 42.8913 125.745 42.77C125.903 42.6393 126.085 42.5227 126.291 42.42C126.496 42.308 126.715 42.224 126.949 42.168C127.191 42.1027 127.448 42.07 127.719 42.07C128.447 42.07 128.993 42.2613 129.357 42.644C129.721 43.0173 129.903 43.5493 129.903 44.24V48.342ZM138.042 48.342C138.042 48.5473 137.967 48.7247 137.818 48.874C137.678 49.014 137.5 49.084 137.286 49.084C137.08 49.084 136.903 49.014 136.754 48.874C136.614 48.7247 136.544 48.5473 136.544 48.342V48.076C136.273 48.4213 135.951 48.692 135.578 48.888C135.214 49.0747 134.812 49.168 134.374 49.168C133.944 49.168 133.543 49.0887 133.17 48.93C132.806 48.7713 132.488 48.5427 132.218 48.244C131.956 47.936 131.751 47.5627 131.602 47.124C131.452 46.6853 131.378 46.186 131.378 45.626C131.378 45.0753 131.448 44.5807 131.588 44.142C131.737 43.7033 131.942 43.33 132.204 43.022C132.474 42.714 132.792 42.4807 133.156 42.322C133.529 42.154 133.935 42.07 134.374 42.07C134.794 42.07 135.19 42.1633 135.564 42.35C135.946 42.5367 136.273 42.8073 136.544 43.162V40.32C136.544 40.1147 136.614 39.942 136.754 39.802C136.903 39.6527 137.09 39.578 137.314 39.578C137.51 39.578 137.678 39.6527 137.818 39.802C137.967 39.942 138.042 40.1147 138.042 40.32V48.342ZM136.544 46.956V44.296C136.376 44.044 136.128 43.834 135.802 43.666C135.484 43.4887 135.153 43.4 134.808 43.4C134.528 43.4 134.271 43.456 134.038 43.568C133.804 43.6707 133.604 43.8247 133.436 44.03C133.277 44.226 133.151 44.464 133.058 44.744C132.964 45.0147 132.918 45.3087 132.918 45.626C132.918 45.9433 132.964 46.242 133.058 46.522C133.151 46.7927 133.277 47.026 133.436 47.222C133.604 47.418 133.804 47.572 134.038 47.684C134.271 47.7867 134.528 47.838 134.808 47.838C135.153 47.838 135.484 47.754 135.802 47.586C136.128 47.418 136.376 47.208 136.544 46.956ZM149.786 48.342C149.786 48.5473 149.711 48.7247 149.562 48.874C149.422 49.014 149.245 49.084 149.03 49.084C148.825 49.084 148.647 49.014 148.498 48.874C148.358 48.7247 148.288 48.5473 148.288 48.342V48.076C148.017 48.4213 147.695 48.692 147.322 48.888C146.958 49.0747 146.557 49.168 146.118 49.168C145.689 49.168 145.287 49.0887 144.914 48.93C144.55 48.7713 144.233 48.5427 143.962 48.244C143.701 47.936 143.495 47.5627 143.346 47.124C143.197 46.6853 143.122 46.186 143.122 45.626C143.122 45.0753 143.192 44.5807 143.332 44.142C143.481 43.7033 143.687 43.33 143.948 43.022C144.219 42.714 144.536 42.4807 144.9 42.322C145.273 42.154 145.679 42.07 146.118 42.07C146.538 42.07 146.935 42.1633 147.308 42.35C147.691 42.5367 148.017 42.8073 148.288 43.162V40.32C148.288 40.1147 148.358 39.942 148.498 39.802C148.647 39.6527 148.834 39.578 149.058 39.578C149.254 39.578 149.422 39.6527 149.562 39.802C149.711 39.942 149.786 40.1147 149.786 40.32V48.342ZM148.288 46.956V44.296C148.12 44.044 147.873 43.834 147.546 43.666C147.229 43.4887 146.897 43.4 146.552 43.4C146.272 43.4 146.015 43.456 145.782 43.568C145.549 43.6707 145.348 43.8247 145.18 44.03C145.021 44.226 144.895 44.464 144.802 44.744C144.709 45.0147 144.662 45.3087 144.662 45.626C144.662 45.9433 144.709 46.242 144.802 46.522C144.895 46.7927 145.021 47.026 145.18 47.222C145.348 47.418 145.549 47.572 145.782 47.684C146.015 47.7867 146.272 47.838 146.552 47.838C146.897 47.838 147.229 47.754 147.546 47.586C147.873 47.418 148.12 47.208 148.288 46.956ZM158.018 45.374C158.018 45.57 157.948 45.7427 157.808 45.892C157.668 46.032 157.496 46.102 157.29 46.102H152.838C152.866 46.354 152.932 46.5967 153.034 46.83C153.146 47.054 153.291 47.25 153.468 47.418C153.646 47.586 153.86 47.7213 154.112 47.824C154.364 47.9173 154.649 47.964 154.966 47.964C155.209 47.964 155.461 47.9267 155.722 47.852C155.993 47.7773 156.245 47.6653 156.478 47.516C156.581 47.46 156.684 47.432 156.786 47.432C156.936 47.432 157.076 47.488 157.206 47.6C157.346 47.712 157.416 47.8613 157.416 48.048C157.416 48.244 157.332 48.3933 157.164 48.496C156.828 48.7293 156.46 48.8973 156.058 49C155.666 49.112 155.251 49.168 154.812 49.168C154.308 49.168 153.837 49.084 153.398 48.916C152.96 48.748 152.582 48.51 152.264 48.202C151.956 47.8847 151.714 47.5113 151.536 47.082C151.359 46.6433 151.27 46.1533 151.27 45.612C151.27 45.1267 151.354 44.6693 151.522 44.24C151.69 43.8013 151.924 43.4233 152.222 43.106C152.53 42.7887 152.894 42.5367 153.314 42.35C153.734 42.1633 154.196 42.07 154.7 42.07C155.102 42.07 155.47 42.1307 155.806 42.252C156.142 42.364 156.441 42.5273 156.702 42.742C156.973 42.9473 157.206 43.1993 157.402 43.498C157.598 43.7873 157.748 44.114 157.85 44.478C157.888 44.618 157.925 44.7673 157.962 44.926C158 45.0753 158.018 45.2247 158.018 45.374ZM156.576 45.066C156.576 44.87 156.539 44.6693 156.464 44.464C156.39 44.2493 156.273 44.0533 156.114 43.876C155.965 43.6987 155.774 43.554 155.54 43.442C155.307 43.33 155.027 43.274 154.7 43.274C154.383 43.274 154.112 43.33 153.888 43.442C153.664 43.554 153.473 43.6987 153.314 43.876C153.165 44.044 153.048 44.2353 152.964 44.45C152.88 44.6553 152.834 44.8607 152.824 45.066H156.576ZM165.307 42.91C165.307 43.0033 165.289 43.0873 165.251 43.162L163.123 48.384C163.03 48.5893 162.89 48.7573 162.703 48.888C162.517 49.0187 162.307 49.084 162.073 49.084H162.045C161.821 49.084 161.611 49.0187 161.415 48.888C161.229 48.7573 161.089 48.5893 160.995 48.384L158.867 43.162C158.83 43.0687 158.811 42.98 158.811 42.896C158.811 42.7093 158.881 42.5413 159.021 42.392C159.161 42.2427 159.343 42.168 159.567 42.168C159.717 42.168 159.852 42.21 159.973 42.294C160.104 42.3687 160.197 42.476 160.253 42.616L162.059 47.264L163.851 42.63C163.907 42.4807 163.996 42.3687 164.117 42.294C164.248 42.21 164.388 42.168 164.537 42.168C164.771 42.168 164.957 42.2427 165.097 42.392C165.237 42.5413 165.307 42.714 165.307 42.91ZM172.866 45.374C172.866 45.57 172.796 45.7427 172.656 45.892C172.516 46.032 172.343 46.102 172.138 46.102H167.686C167.714 46.354 167.779 46.5967 167.882 46.83C167.994 47.054 168.139 47.25 168.316 47.418C168.493 47.586 168.708 47.7213 168.96 47.824C169.212 47.9173 169.497 47.964 169.814 47.964C170.057 47.964 170.309 47.9267 170.57 47.852C170.841 47.7773 171.093 47.6653 171.326 47.516C171.429 47.46 171.531 47.432 171.634 47.432C171.783 47.432 171.923 47.488 172.054 47.6C172.194 47.712 172.264 47.8613 172.264 48.048C172.264 48.244 172.18 48.3933 172.012 48.496C171.676 48.7293 171.307 48.8973 170.906 49C170.514 49.112 170.099 49.168 169.66 49.168C169.156 49.168 168.685 49.084 168.246 48.916C167.807 48.748 167.429 48.51 167.112 48.202C166.804 47.8847 166.561 47.5113 166.384 47.082C166.207 46.6433 166.118 46.1533 166.118 45.612C166.118 45.1267 166.202 44.6693 166.37 44.24C166.538 43.8013 166.771 43.4233 167.07 43.106C167.378 42.7887 167.742 42.5367 168.162 42.35C168.582 42.1633 169.044 42.07 169.548 42.07C169.949 42.07 170.318 42.1307 170.654 42.252C170.99 42.364 171.289 42.5273 171.55 42.742C171.821 42.9473 172.054 43.1993 172.25 43.498C172.446 43.7873 172.595 44.114 172.698 44.478C172.735 44.618 172.773 44.7673 172.81 44.926C172.847 45.0753 172.866 45.2247 172.866 45.374ZM171.424 45.066C171.424 44.87 171.387 44.6693 171.312 44.464C171.237 44.2493 171.121 44.0533 170.962 43.876C170.813 43.6987 170.621 43.554 170.388 43.442C170.155 43.33 169.875 43.274 169.548 43.274C169.231 43.274 168.96 43.33 168.736 43.442C168.512 43.554 168.321 43.6987 168.162 43.876C168.013 44.044 167.896 44.2353 167.812 44.45C167.728 44.6553 167.681 44.8607 167.672 45.066H171.424ZM175.829 48.342C175.829 48.5473 175.754 48.7247 175.605 48.874C175.456 49.014 175.278 49.084 175.073 49.084C174.868 49.084 174.69 49.014 174.541 48.874C174.401 48.7247 174.331 48.5473 174.331 48.342V40.306C174.331 40.11 174.401 39.942 174.541 39.802C174.69 39.6527 174.877 39.578 175.101 39.578C175.297 39.578 175.465 39.6527 175.605 39.802C175.754 39.942 175.829 40.11 175.829 40.306V48.342ZM184.274 45.612C184.274 46.0973 184.194 46.5547 184.036 46.984C183.877 47.4133 183.644 47.7913 183.336 48.118C183.037 48.4353 182.673 48.692 182.244 48.888C181.814 49.0747 181.329 49.168 180.788 49.168C180.246 49.168 179.756 49.0747 179.318 48.888C178.888 48.692 178.524 48.4353 178.226 48.118C177.927 47.7913 177.698 47.4133 177.54 46.984C177.381 46.5547 177.302 46.0973 177.302 45.612C177.302 45.136 177.381 44.6833 177.54 44.254C177.698 43.8153 177.927 43.4373 178.226 43.12C178.524 42.8027 178.888 42.5507 179.318 42.364C179.756 42.168 180.246 42.07 180.788 42.07C181.329 42.07 181.814 42.168 182.244 42.364C182.673 42.5507 183.037 42.8027 183.336 43.12C183.644 43.4373 183.877 43.8153 184.036 44.254C184.194 44.6833 184.274 45.136 184.274 45.612ZM182.706 45.612C182.706 45.3227 182.664 45.0427 182.58 44.772C182.496 44.5013 182.37 44.268 182.202 44.072C182.043 43.8667 181.842 43.7033 181.6 43.582C181.366 43.4607 181.096 43.4 180.788 43.4C180.47 43.4 180.19 43.4607 179.948 43.582C179.714 43.7033 179.514 43.8667 179.346 44.072C179.187 44.268 179.066 44.5013 178.982 44.772C178.898 45.0427 178.856 45.3227 178.856 45.612C178.856 45.9107 178.898 46.1953 178.982 46.466C179.066 46.7367 179.187 46.9747 179.346 47.18C179.514 47.376 179.714 47.5347 179.948 47.656C180.19 47.7773 180.47 47.838 180.788 47.838C181.096 47.838 181.366 47.7773 181.6 47.656C181.842 47.5347 182.043 47.376 182.202 47.18C182.37 46.9747 182.496 46.7367 182.58 46.466C182.664 46.1953 182.706 45.9107 182.706 45.612ZM192.397 45.612C192.397 46.172 192.322 46.6713 192.173 47.11C192.033 47.5487 191.828 47.922 191.557 48.23C191.296 48.538 190.978 48.7713 190.605 48.93C190.241 49.0887 189.84 49.168 189.401 49.168C188.972 49.168 188.57 49.0793 188.197 48.902C187.833 48.7153 187.516 48.44 187.245 48.076V50.932C187.245 51.128 187.17 51.296 187.021 51.436C186.872 51.5853 186.694 51.66 186.489 51.66C186.284 51.66 186.106 51.5853 185.957 51.436C185.817 51.296 185.747 51.128 185.747 50.932V42.882C185.747 42.686 185.817 42.518 185.957 42.378C186.106 42.2287 186.293 42.154 186.517 42.154C186.713 42.154 186.881 42.2287 187.021 42.378C187.17 42.518 187.245 42.686 187.245 42.882V43.148C187.497 42.812 187.81 42.5507 188.183 42.364C188.556 42.168 188.962 42.07 189.401 42.07C189.84 42.07 190.241 42.1493 190.605 42.308C190.978 42.4667 191.296 42.7 191.557 43.008C191.828 43.3067 192.033 43.6753 192.173 44.114C192.322 44.5527 192.397 45.052 192.397 45.612ZM190.843 45.612C190.843 45.2947 190.796 45.0007 190.703 44.73C190.619 44.45 190.493 44.212 190.325 44.016C190.166 43.82 189.97 43.6707 189.737 43.568C189.504 43.456 189.242 43.4 188.953 43.4C188.617 43.4 188.286 43.4887 187.959 43.666C187.642 43.834 187.404 44.044 187.245 44.296V46.942C187.404 47.1847 187.642 47.3947 187.959 47.572C188.286 47.7493 188.617 47.838 188.953 47.838C189.242 47.838 189.504 47.7867 189.737 47.684C189.97 47.572 190.166 47.418 190.325 47.222C190.493 47.0167 190.619 46.7787 190.703 46.508C190.796 46.2373 190.843 45.9387 190.843 45.612ZM200.182 45.374C200.182 45.57 200.112 45.7427 199.972 45.892C199.832 46.032 199.66 46.102 199.454 46.102H195.002C195.03 46.354 195.096 46.5967 195.198 46.83C195.31 47.054 195.455 47.25 195.632 47.418C195.81 47.586 196.024 47.7213 196.276 47.824C196.528 47.9173 196.813 47.964 197.13 47.964C197.373 47.964 197.625 47.9267 197.886 47.852C198.157 47.7773 198.409 47.6653 198.642 47.516C198.745 47.46 198.848 47.432 198.95 47.432C199.1 47.432 199.24 47.488 199.37 47.6C199.51 47.712 199.58 47.8613 199.58 48.048C199.58 48.244 199.496 48.3933 199.328 48.496C198.992 48.7293 198.624 48.8973 198.222 49C197.83 49.112 197.415 49.168 196.976 49.168C196.472 49.168 196.001 49.084 195.562 48.916C195.124 48.748 194.746 48.51 194.428 48.202C194.12 47.8847 193.878 47.5113 193.7 47.082C193.523 46.6433 193.434 46.1533 193.434 45.612C193.434 45.1267 193.518 44.6693 193.686 44.24C193.854 43.8013 194.088 43.4233 194.386 43.106C194.694 42.7887 195.058 42.5367 195.478 42.35C195.898 42.1633 196.36 42.07 196.864 42.07C197.266 42.07 197.634 42.1307 197.97 42.252C198.306 42.364 198.605 42.5273 198.866 42.742C199.137 42.9473 199.37 43.1993 199.566 43.498C199.762 43.7873 199.912 44.114 200.014 44.478C200.052 44.618 200.089 44.7673 200.126 44.926C200.164 45.0753 200.182 45.2247 200.182 45.374ZM198.74 45.066C198.74 44.87 198.703 44.6693 198.628 44.464C198.554 44.2493 198.437 44.0533 198.278 43.876C198.129 43.6987 197.938 43.554 197.704 43.442C197.471 43.33 197.191 43.274 196.864 43.274C196.547 43.274 196.276 43.33 196.052 43.442C195.828 43.554 195.637 43.6987 195.478 43.876C195.329 44.044 195.212 44.2353 195.128 44.45C195.044 44.6553 194.998 44.8607 194.988 45.066H198.74ZM207.891 48.342C207.891 48.5473 207.817 48.7247 207.667 48.874C207.527 49.014 207.35 49.084 207.135 49.084C206.93 49.084 206.753 49.014 206.603 48.874C206.463 48.7247 206.393 48.5473 206.393 48.342V48.076C206.123 48.4213 205.801 48.692 205.427 48.888C205.063 49.0747 204.662 49.168 204.223 49.168C203.794 49.168 203.393 49.0887 203.019 48.93C202.655 48.7713 202.338 48.5427 202.067 48.244C201.806 47.936 201.601 47.5627 201.451 47.124C201.302 46.6853 201.227 46.186 201.227 45.626C201.227 45.0753 201.297 44.5807 201.437 44.142C201.587 43.7033 201.792 43.33 202.053 43.022C202.324 42.714 202.641 42.4807 203.005 42.322C203.379 42.154 203.785 42.07 204.223 42.07C204.643 42.07 205.04 42.1633 205.413 42.35C205.796 42.5367 206.123 42.8073 206.393 43.162V40.32C206.393 40.1147 206.463 39.942 206.603 39.802C206.753 39.6527 206.939 39.578 207.163 39.578C207.359 39.578 207.527 39.6527 207.667 39.802C207.817 39.942 207.891 40.1147 207.891 40.32V48.342ZM206.393 46.956V44.296C206.225 44.044 205.978 43.834 205.651 43.666C205.334 43.4887 205.003 43.4 204.657 43.4C204.377 43.4 204.121 43.456 203.887 43.568C203.654 43.6707 203.453 43.8247 203.285 44.03C203.127 44.226 203.001 44.464 202.907 44.744C202.814 45.0147 202.767 45.3087 202.767 45.626C202.767 45.9433 202.814 46.242 202.907 46.522C203.001 46.7927 203.127 47.026 203.285 47.222C203.453 47.418 203.654 47.572 203.887 47.684C204.121 47.7867 204.377 47.838 204.657 47.838C205.003 47.838 205.334 47.754 205.651 47.586C205.978 47.418 206.225 47.208 206.393 46.956ZM220.041 45.626C220.041 46.186 219.967 46.6853 219.817 47.124C219.668 47.5627 219.458 47.936 219.187 48.244C218.926 48.5427 218.609 48.7713 218.235 48.93C217.871 49.0887 217.475 49.168 217.045 49.168C216.607 49.168 216.201 49.0747 215.827 48.888C215.463 48.692 215.151 48.4213 214.889 48.076V48.342C214.889 48.5473 214.815 48.7247 214.665 48.874C214.516 49.014 214.339 49.084 214.133 49.084C213.928 49.084 213.751 49.014 213.601 48.874C213.461 48.7247 213.391 48.5473 213.391 48.342V40.306C213.391 40.11 213.461 39.942 213.601 39.802C213.751 39.6527 213.937 39.578 214.161 39.578C214.357 39.578 214.525 39.6527 214.665 39.802C214.815 39.942 214.889 40.11 214.889 40.306V43.162C215.16 42.8073 215.477 42.5367 215.841 42.35C216.215 42.1633 216.616 42.07 217.045 42.07C217.475 42.07 217.871 42.154 218.235 42.322C218.609 42.4807 218.926 42.714 219.187 43.022C219.458 43.33 219.668 43.7033 219.817 44.142C219.967 44.5807 220.041 45.0753 220.041 45.626ZM218.501 45.626C218.501 45.3087 218.455 45.0147 218.361 44.744C218.277 44.464 218.151 44.226 217.983 44.03C217.825 43.8247 217.629 43.6707 217.395 43.568C217.162 43.456 216.896 43.4 216.597 43.4C216.261 43.4 215.93 43.4887 215.603 43.666C215.286 43.8433 215.048 44.058 214.889 44.31V46.956C215.048 47.208 215.286 47.418 215.603 47.586C215.93 47.754 216.261 47.838 216.597 47.838C216.896 47.838 217.162 47.7867 217.395 47.684C217.629 47.572 217.825 47.418 217.983 47.222C218.151 47.026 218.277 46.7927 218.361 46.522C218.455 46.2513 218.501 45.9527 218.501 45.626ZM227.364 42.882C227.364 42.994 227.345 43.0873 227.308 43.162L224.424 50.204C224.191 50.7547 223.883 51.1467 223.5 51.38C223.127 51.6227 222.702 51.744 222.226 51.744C222.095 51.744 221.969 51.73 221.848 51.702C221.736 51.674 221.633 51.632 221.54 51.576C221.447 51.5293 221.372 51.4593 221.316 51.366C221.26 51.282 221.232 51.184 221.232 51.072C221.232 50.8853 221.297 50.7267 221.428 50.596C221.559 50.4653 221.727 50.4 221.932 50.4C221.979 50.4 222.025 50.4 222.072 50.4C222.119 50.4093 222.165 50.4093 222.212 50.4C222.38 50.3907 222.529 50.3393 222.66 50.246C222.8 50.162 222.912 50.0267 222.996 49.84L223.332 49.084L220.91 43.148C220.882 43.0733 220.868 42.9893 220.868 42.896C220.868 42.7093 220.933 42.5413 221.064 42.392C221.204 42.2333 221.391 42.154 221.624 42.154C221.773 42.154 221.909 42.196 222.03 42.28C222.161 42.364 222.259 42.4853 222.324 42.644L224.116 47.264L225.908 42.644C225.964 42.4947 226.057 42.378 226.188 42.294C226.319 42.2007 226.463 42.154 226.622 42.154C226.846 42.154 227.023 42.2287 227.154 42.378C227.294 42.5273 227.364 42.6953 227.364 42.882Z" fill="#5D748A"/>
<path d="M275.297 49.3909C274.455 49.3984 273.614 49.3524 272.778 49.2531C272.736 49.2499 272.695 49.2385 272.658 49.2196C272.62 49.2006 272.587 49.1745 272.56 49.1428C272.533 49.1111 272.513 49.0744 272.5 49.0348C272.488 48.9952 272.483 48.9536 272.487 48.9123V39.5066C272.481 39.4233 272.508 39.341 272.562 39.277C272.617 39.213 272.694 39.1723 272.778 39.1634C273.614 39.0652 274.455 39.02 275.297 39.028C277.86 39.028 279.494 40.3283 279.494 43.2838V45.1327C279.494 48.0625 277.86 49.3909 275.297 49.3909ZM278.235 43.2838C278.235 40.8069 276.96 40.0949 275.297 40.0949C274.648 40.0949 274.218 40.1089 273.762 40.1369V48.3077C274.204 48.3333 274.648 48.3333 275.297 48.3333C276.95 48.3333 278.235 47.6097 278.235 45.1444V43.2838Z" fill="#A3B0BD"/>
<path d="M286.861 45.9125H282.221V46.0782C282.221 47.6517 282.97 48.3777 284.245 48.3777C285.036 48.3682 285.825 48.3042 286.606 48.1863H286.677C286.705 48.1826 286.733 48.1848 286.759 48.1928C286.786 48.2007 286.81 48.2142 286.831 48.2324C286.852 48.2506 286.869 48.2729 286.88 48.298C286.891 48.3231 286.897 48.3503 286.897 48.3777V48.8446C286.897 49.022 286.843 49.1178 286.621 49.1598C285.838 49.3193 285.04 49.3975 284.24 49.3932C282.658 49.3909 281.005 48.6369 281.005 46.0035V45.0464C281.005 43.1017 282.101 41.666 284.075 41.666C286.096 41.666 287.121 43.0877 287.121 45.0324V45.6067C287.124 45.7911 287.027 45.9125 286.861 45.9125ZM285.891 44.9273C285.891 43.4636 285.296 42.7235 284.077 42.7235C282.859 42.7235 282.221 43.5173 282.221 44.9273V44.995H285.891V44.9273Z" fill="#A3B0BD"/>
<path d="M294.602 42.0932L292.829 48.31C292.593 49.1715 292.04 49.3909 291.485 49.3909C290.93 49.3909 290.392 49.1715 290.144 48.31L288.37 42.0932C288.36 42.0625 288.355 42.03 288.356 41.9975C288.353 41.9673 288.357 41.9368 288.367 41.908C288.376 41.8793 288.392 41.853 288.414 41.8309C288.435 41.8087 288.46 41.7913 288.489 41.7798C288.517 41.7683 288.548 41.7629 288.578 41.7641H289.339C289.45 41.7641 289.561 41.8458 289.603 42.0232L291.159 47.9669C291.242 48.31 291.353 48.3917 291.49 48.3917C291.627 48.3917 291.74 48.31 291.823 47.9669L293.37 42.0349C293.412 41.8574 293.521 41.7757 293.632 41.7757H294.409C294.438 41.7734 294.467 41.7775 294.494 41.7877C294.521 41.798 294.545 41.8141 294.565 41.8349C294.585 41.8558 294.6 41.8808 294.609 41.9081C294.618 41.9355 294.62 41.9644 294.616 41.9929C294.617 42.0268 294.612 42.0607 294.602 42.0932Z" fill="#A3B0BD"/>
<path d="M301.734 45.9125H297.094V46.0782C297.094 47.6517 297.842 48.3777 299.115 48.3777C299.906 48.3681 300.695 48.3041 301.477 48.1863H301.547C301.575 48.183 301.603 48.1855 301.629 48.1936C301.656 48.2017 301.68 48.2152 301.701 48.2333C301.721 48.2514 301.738 48.2736 301.749 48.2985C301.761 48.3234 301.767 48.3504 301.767 48.3777V48.8446C301.767 49.022 301.713 49.1178 301.491 49.1598C300.707 49.3194 299.908 49.3976 299.108 49.3932C297.535 49.3909 295.882 48.6369 295.882 46.0035V45.0464C295.882 43.1017 296.978 41.666 298.952 41.666C300.974 41.666 301.998 43.0877 301.998 45.0324V45.6067C301.996 45.7911 301.899 45.9125 301.734 45.9125ZM300.763 44.9273C300.763 43.4636 300.168 42.7235 298.95 42.7235C297.731 42.7235 297.094 43.5173 297.094 44.9273V44.995H300.763V44.9273Z" fill="#A3B0BD"/>
<path d="M304.738 49.2952H304.017C303.95 49.2881 303.888 49.2555 303.844 49.2042C303.8 49.1529 303.777 49.0868 303.781 49.0197V39.2591C303.778 39.1939 303.801 39.13 303.845 39.0814C303.89 39.0329 303.951 39.0036 304.017 39H304.738C304.771 39.0003 304.805 39.0073 304.836 39.0205C304.867 39.0338 304.895 39.0531 304.918 39.0773C304.942 39.1014 304.96 39.13 304.972 39.1612C304.984 39.1924 304.989 39.2257 304.988 39.2591V49.0197C304.99 49.0541 304.985 49.0884 304.973 49.1209C304.962 49.1533 304.944 49.1832 304.921 49.2088C304.897 49.2344 304.869 49.2552 304.838 49.27C304.806 49.2848 304.772 49.2934 304.738 49.2952Z" fill="#A3B0BD"/>
<path d="M309.834 49.3909C307.798 49.3909 306.764 48.0625 306.764 46.0502V45.009C306.764 42.9967 307.803 41.6707 309.834 41.6707C311.865 41.6707 312.923 42.9967 312.923 45.009V46.0502C312.923 48.0625 311.869 49.3909 309.834 49.3909ZM311.704 45.009C311.704 43.6083 311.135 42.7235 309.834 42.7235C308.533 42.7235 307.978 43.599 307.978 45.009V46.0502C307.978 47.4509 308.533 48.3357 309.834 48.3357C311.135 48.3357 311.704 47.4602 311.704 46.0502V45.009Z" fill="#A3B0BD"/>
<path d="M317.395 49.3909C316.852 49.3829 316.31 49.3321 315.775 49.2391V51.7184C315.775 51.7873 315.746 51.8532 315.697 51.9018C315.647 51.9503 315.58 51.9775 315.511 51.9775H314.802C314.769 51.9772 314.735 51.9702 314.704 51.9569C314.673 51.9436 314.646 51.9243 314.622 51.9001C314.599 51.8759 314.581 51.8473 314.57 51.8161C314.558 51.7849 314.553 51.7516 314.554 51.7184V42.2986C314.554 42.1212 314.594 42.0395 314.845 41.9835C315.68 41.7854 316.534 41.6805 317.393 41.6707C319.454 41.6707 320.411 42.9967 320.411 45.051V46.0362C320.413 48.1863 319.417 49.3909 317.395 49.3909ZM319.195 45.051C319.195 43.613 318.765 42.6815 317.395 42.6815C316.852 42.6851 316.311 42.7312 315.775 42.8192V48.24C316.311 48.3259 316.852 48.3719 317.395 48.3777C318.751 48.3777 319.195 47.5023 319.195 46.0432V45.051Z" fill="#A3B0BD"/>
<path d="M330.964 49.2952H330.244C330.209 49.2943 330.174 49.2864 330.143 49.2719C330.111 49.2574 330.083 49.2365 330.059 49.2107C330.036 49.1849 330.018 49.1546 330.008 49.1217C329.997 49.0889 329.993 49.0541 329.996 49.0197V44.0659C329.996 42.8869 329.483 42.7235 328.749 42.7235H328.43C327.545 42.7235 327.25 42.8753 327.25 43.6573V49.0267C327.252 49.0612 327.248 49.096 327.237 49.1289C327.226 49.1618 327.208 49.192 327.185 49.2178C327.161 49.2436 327.133 49.2644 327.101 49.2789C327.069 49.2934 327.034 49.3013 326.999 49.3022H326.279C326.244 49.3013 326.21 49.2934 326.178 49.2789C326.146 49.2644 326.118 49.2435 326.094 49.2177C326.071 49.1919 326.054 49.1616 326.043 49.1287C326.032 49.0959 326.028 49.0611 326.031 49.0267V43.6573C326.031 42.8776 325.726 42.7235 324.85 42.7235H324.532C323.811 42.7235 323.285 42.8869 323.285 44.0659V49.0197C323.288 49.0542 323.283 49.089 323.272 49.1219C323.261 49.1548 323.243 49.185 323.22 49.2108C323.196 49.2366 323.168 49.2574 323.136 49.2719C323.104 49.2864 323.069 49.2943 323.034 49.2952H322.326C322.291 49.2943 322.256 49.2864 322.224 49.2719C322.193 49.2574 322.164 49.2366 322.141 49.2108C322.117 49.185 322.099 49.1548 322.088 49.1219C322.077 49.089 322.073 49.0542 322.076 49.0197V44.0659C322.076 42.6652 322.878 41.6707 324.541 41.6707H324.86C325.689 41.6707 326.229 41.778 326.659 42.1632C327.075 41.8061 327.627 41.6707 328.459 41.6707H328.777C330.43 41.6707 331.243 42.6558 331.243 44.0659V49.0197C331.246 49.0567 331.241 49.0939 331.228 49.1288C331.215 49.1637 331.195 49.1953 331.168 49.2216C331.142 49.2478 331.11 49.268 331.074 49.2807C331.039 49.2934 331.002 49.2984 330.964 49.2952Z" fill="#A3B0BD"/>
<path d="M338.733 45.9126H334.095V46.0783C334.095 47.6518 334.842 48.3778 336.117 48.3778C336.907 48.3683 337.697 48.3043 338.478 48.1864H338.549C338.577 48.1827 338.605 48.1849 338.632 48.1929C338.658 48.2008 338.683 48.2143 338.704 48.2324C338.725 48.2505 338.742 48.2729 338.753 48.2979C338.765 48.323 338.771 48.3502 338.771 48.3778V48.8447C338.771 49.0221 338.714 49.1178 338.492 49.1599C337.709 49.3195 336.912 49.3977 336.112 49.3933C334.518 49.3933 332.872 48.6393 332.872 46.0106V45.0535C332.872 43.1088 333.965 41.6731 335.942 41.6731C337.966 41.6731 338.988 43.0948 338.988 45.0395V45.6137C338.995 45.7912 338.899 45.9126 338.733 45.9126ZM337.765 44.9274C337.765 43.4637 337.168 42.7236 335.949 42.7236C334.731 42.7236 334.095 43.5174 334.095 44.9274V44.9951H337.765V44.9274Z" fill="#A3B0BD"/>
<path d="M346.21 49.2953H345.501C345.465 49.2964 345.429 49.2899 345.395 49.2763C345.362 49.2626 345.332 49.2421 345.307 49.2161C345.282 49.1901 345.262 49.1592 345.25 49.1253C345.238 49.0915 345.234 49.0555 345.237 49.0198V44.136C345.237 43.1088 344.975 42.712 344.032 42.712H343.048C342.103 42.712 341.843 43.1088 341.843 44.136V49.0198C341.847 49.0533 341.843 49.0871 341.833 49.1192C341.823 49.1513 341.806 49.1811 341.784 49.2068C341.762 49.2324 341.735 49.2535 341.705 49.2687C341.674 49.2839 341.641 49.2929 341.607 49.2953H340.887C340.852 49.2944 340.817 49.2865 340.786 49.272C340.754 49.2575 340.725 49.2367 340.702 49.2109C340.678 49.1851 340.66 49.1549 340.649 49.122C340.638 49.0891 340.634 49.0543 340.637 49.0198V44.136C340.637 42.0349 342.12 41.6731 343.059 41.6731H344.044C344.989 41.6731 346.467 42.0279 346.467 44.136V49.0198C346.47 49.0549 346.466 49.0903 346.454 49.1236C346.442 49.157 346.424 49.1876 346.4 49.2135C346.375 49.2394 346.346 49.26 346.313 49.2741C346.281 49.2882 346.245 49.2954 346.21 49.2953Z" fill="#A3B0BD"/>
<path d="M351.721 49.3092C351.28 49.3639 350.836 49.3912 350.392 49.3909C349.091 49.3909 348.344 48.966 348.344 47.4883V40.424C348.344 40.2863 348.467 40.1906 348.621 40.1626L349.298 40.0552H349.327C349.36 40.055 349.393 40.0618 349.424 40.0751C349.454 40.0884 349.481 40.1079 349.504 40.1324C349.526 40.1568 349.543 40.1857 349.553 40.2171C349.563 40.2484 349.567 40.2816 349.563 40.3143V41.7664H351.721C351.756 41.7622 351.79 41.7656 351.823 41.7762C351.856 41.7868 351.886 41.8044 351.912 41.8278C351.937 41.8512 351.956 41.8797 351.969 41.9115C351.982 41.9432 351.988 41.9774 351.986 42.0115V42.4784C351.987 42.5128 351.981 42.547 351.968 42.5789C351.955 42.6109 351.935 42.6398 351.91 42.6639C351.885 42.688 351.856 42.7068 351.823 42.7191C351.791 42.7313 351.756 42.7368 351.721 42.7352H349.563V47.4883C349.563 48.282 349.825 48.4221 350.588 48.4221H351.709C351.903 48.4221 352 48.4781 352 48.6158V49.0827C352 49.1994 351.929 49.2718 351.721 49.3092Z" fill="#A3B0BD"/>
<path d="M254.45 49.2718C253.827 49.3675 252.089 49.4912 251.487 49.4912C248.814 49.5052 247 48.8399 247 45.5132V39.4668C247 39.4312 247.007 39.3959 247.02 39.363C247.034 39.3301 247.055 39.3003 247.081 39.2754C247.106 39.2505 247.137 39.2311 247.171 39.2182C247.204 39.2054 247.24 39.1994 247.276 39.2007H249.534C249.57 39.1991 249.606 39.2048 249.64 39.2176C249.674 39.2303 249.704 39.2497 249.73 39.2746C249.756 39.2996 249.777 39.3295 249.79 39.3626C249.804 39.3956 249.811 39.4311 249.81 39.4668V45.5132C249.81 46.7435 250.226 47.1474 251.21 47.1474C251.655 47.1468 252.099 47.1195 252.54 47.0657V39.4668C252.539 39.4311 252.546 39.3956 252.56 39.3626C252.574 39.3295 252.594 39.2996 252.62 39.2746C252.646 39.2497 252.677 39.2303 252.71 39.2176C252.744 39.2048 252.78 39.1991 252.816 39.2007H255.06C255.096 39.1991 255.133 39.2048 255.168 39.2174C255.202 39.2299 255.234 39.2491 255.261 39.2739C255.288 39.2986 255.31 39.3284 255.325 39.3615C255.34 39.3947 255.349 39.4304 255.35 39.4668V48.2236C255.35 48.9893 255.114 49.1807 254.45 49.2718Z" fill="#5D748A"/>
<path d="M259.698 49.3722H257.426C257.353 49.3709 257.284 49.3416 257.234 49.2905C257.183 49.2394 257.154 49.1707 257.154 49.099V39.4668C257.154 39.4316 257.161 39.3967 257.174 39.3641C257.188 39.3315 257.208 39.3019 257.233 39.2771C257.259 39.2523 257.289 39.2328 257.322 39.2196C257.355 39.2065 257.39 39.2001 257.426 39.2007H259.698C259.734 39.1991 259.77 39.2048 259.804 39.2176C259.837 39.2303 259.868 39.2497 259.894 39.2746C259.92 39.2996 259.94 39.3295 259.954 39.3626C259.968 39.3956 259.975 39.4311 259.974 39.4668V49.099C259.974 49.1715 259.945 49.2409 259.893 49.2922C259.841 49.3434 259.771 49.3722 259.698 49.3722Z" fill="#5D748A"/>
<path d="M267.729 49.2509C267.099 49.4304 266.446 49.5162 265.79 49.5053C263.242 49.5053 261.525 48.128 261.525 44.9927V43.592C261.525 40.4474 263.242 39.0794 265.79 39.0794C266.445 39.0605 267.098 39.1392 267.729 39.3129C267.951 39.3829 268.034 39.4226 268.034 39.614V41.3672C268.034 41.5446 267.951 41.6264 267.797 41.6264H267.755C267.111 41.5511 266.464 41.5098 265.816 41.5026C265.068 41.5026 264.399 41.8318 264.399 43.571V44.9717C264.399 46.6969 265.063 47.0377 265.816 47.0377C266.46 47.0378 267.103 47.0043 267.743 46.9374H267.781C267.946 46.9374 268.017 47.0191 268.017 47.1965V48.9497C268.034 49.1271 267.951 49.1808 267.729 49.2509Z" fill="#5D748A"/>
<defs>
<filter id="filter0_d" x="0" y="0" width="404" height="108" filterUnits="userSpaceOnUse" color-interpolation-filters="sRGB">
<feFlood flood-opacity="0" result="BackgroundImageFix"/>
<feColorMatrix in="SourceAlpha" type="matrix" values="0 0 0 0 0 0 0 0 0 0 0 0 0 0 0 0 0 0 127 0"/>
<feOffset dy="10"/>
<feGaussianBlur stdDeviation="10"/>
<feColorMatrix type="matrix" values="0 0 0 0 0.4161 0 0 0 0 0.482057 0 0 0 0 0.57 0 0 0 0.05 0"/>
<feBlend mode="normal" in2="BackgroundImageFix" result="effect1_dropShadow"/>
<feBlend mode="normal" in="SourceGraphic" in2="effect1_dropShadow" result="shape"/>
</filter>
</defs>
</svg>
